<?xml version="1.0" encoding="UTF-8"?>
<svg width="1200pt" height="1200pt" version="1.1" viewBox="0 0 1200 1200" xmlns="http://www.w3.org/2000/svg">
 <path d="m75 785.81c10.359 0 18.75-8.3906 18.75-18.75v-318.19c0-25.219 20.531-45.75 45.75-45.75h82.312c24.562-0.32813 24.703-37.125 0-37.5h-82.312c-45.891 0-83.25 37.359-83.25 83.25v318.19c0 10.359 8.3906 18.75 18.75 18.75z"/>
 <path d="m1060.5 365.63h-82.312c-10.359 0-18.75 8.3906-18.75 18.75s8.3906 18.75 18.75 18.75h82.312c25.219 0 45.75 20.531 45.75 45.75v548.06c0 25.312-20.531 45.938-45.75 45.938h-921c-25.219 0-45.75-20.625-45.75-45.938v-164.26c0-10.359-8.3906-18.75-18.75-18.75s-18.75 8.3906-18.75 18.75v164.26c0 45.984 37.359 83.438 83.25 83.438h921c45.891 0 83.25-37.453 83.25-83.438v-548.06c0-45.891-37.359-83.25-83.25-83.25z"/>
 <path d="m202.26 461.21c-19.219-14.953-42.562 13.688-23.25 29.391l293.63 232.36-293.63 232.31c-13.875 10.172-5.5312 34.219 11.625 33.469 4.0781 0 8.2031-1.3125 11.625-4.0312l300.61-237.79 85.5 67.688c6.8438 5.3906 16.453 5.3906 23.297 0l85.5-67.688 300.61 237.79c19.172 14.766 42.609-13.5 23.25-29.391l-293.63-232.31 293.63-232.36c18.984-15.234-3.7969-44.625-23.297-29.391l-57.047 45.141v-215.34c-0.51562-24.516-36.984-24.75-37.5 0v245.02l-303.19 239.9-303.19-239.9v-352.13c0-14.766 12-26.812 26.812-26.812h552.74c14.766 0 26.812 12.047 26.812 26.812v41.438c0.375 24.75 37.172 24.516 37.5 0v-41.438c0-35.484-28.828-64.312-64.312-64.312h-552.74c-35.438 0-64.312 28.828-64.312 64.312v322.4z"/>
 <path d="m688.78 338.76c0.60938-17.25-23.203-25.5-33.188-11.531-48.328-36.141-123.37 2.3438-121.5 63.328-0.84375 69.703 88.5 103.97 134.11 52.125 37.875 40.219 107.2 8.9531 102.66-46.453 0-79.594-53.719-149.29-127.78-165.74-118.22-29.156-229.45 84-198.32 201.74 20.859 99.141 139.03 153.47 229.31 110.11 22.266-10.688 7.0312-43.922-15.562-34.125-25.594 11.672-54.234 14.531-82.688 8.2031-163.87-42.891-106.88-282.71 59.156-249.32 57 12.656 98.391 66.984 98.391 129.14 1.7344 13.828-7.6875 27.375-22.312 27.234-12.281 0-22.312-9.9844-22.312-22.312v-62.391zm-77.344 91.641c-52.547-1.3594-52.547-78.328 0-79.688 52.547 1.3594 52.5 78.328 0 79.688z"/>
</svg>
