<?xml version="1.0" encoding="UTF-8"?>
<svg width="1200pt" height="1200pt" version="1.1" viewBox="0 0 1200 1200" xmlns="http://www.w3.org/2000/svg">
 <path d="m1078.2 908.68c-127.08-18.375-192-65.156-232.6-90.984 1.6406-1.875 2.8125-4.1719 3.2344-6.7969 2.625-15.234-37.359-124.08-49.172-133.82l-6.1406-4.7344-4.6406 1.7344c-5.9062-23.672-17.016-64.969-17.109-65.344-10.406-55.125-11.344-98.719-18.516-142.97-0.51562-3.2344-1.0312-6.5156-1.5-9.8438-5.6719-38.062-10.406-72.844-12.516-107.44 1.9219-26.578 1.9688-41.062 1.9688-41.062s33.469 35.203 45.469 46.359c10.781 10.031 26.625 17.578 38.766 8.6719 20.016-14.719 9.2344-49.875 2.8125-70.922-0.79688-2.5781-32.25-114.09-64.078-151.97-16.922-20.109-35.625-29.203-55.594-27.047-57.656 6.2344-108.98 103.92-139.64 162.32-4.6875 8.9062-8.7188 16.641-12.047 22.5-8.9531 15.891-84.469 208.45-93.516 224.34-26.766 46.922-68.812 99.844-86.016 125.39-2.7656-1.125-7.7344-2.1094-13.828 1.7344-18.328 11.531-65.484 96.703-64.453 122.86 0.23438 5.9531 2.4375 9.5625 4.7812 11.906-52.594 40.828-71.953 87.094-133.36 119.34-19.875 10.453-100.36 11.672-102.09 39.938-1.7344 28.266 181.45 52.219 231.56 66.891 49.734 14.578 179.48 58.547 224.9 60.141 231.84 8.1562 351-35.062 351-35.062 155.29-30.047 235.13-76.547 254.34-91.312 14.672-11.344 17.391-34.969-52.031-34.828zm-704.86-236.86c66.422 34.219 137.53 53.578 211.4 57.562 67.688 3.75 137.34-6.3281 202.03-29.062 10.266 20.297 32.297 80.25 37.312 101.34-77.953 27.609-162.94 40.031-245.16 35.578-89.344-4.8281-175.36-28.266-255.66-69.75 3-19.312 36.375-80.531 50.062-95.672z"/>
</svg>
