<?xml version="1.0" encoding="UTF-8"?>
<svg width="1200pt" height="1200pt" version="1.1" viewBox="0 0 1200 1200" xmlns="http://www.w3.org/2000/svg">
 <path d="m1159.6 391.92-177.12-174.36v-130.56c0-15.023-5.9688-29.43-16.59-40.051-10.625-10.621-25.031-16.59-40.051-16.59h-651.96c-15.023 0-29.43 5.9688-40.051 16.59-10.621 10.621-16.59 25.027-16.59 40.051v131.04l-176.76 173.88c-10.977 10.836-17.152 25.613-17.16 41.039v127.92c0 36.188 14.375 70.891 39.961 96.48 25.586 25.586 60.293 39.961 96.477 39.961h5.7617c41.445-0.035156 80.621-18.938 106.44-51.359 25.816 32.422 64.992 51.324 106.44 51.359h5.6406c41.445-0.035156 80.621-18.938 106.44-51.359 25.816 32.422 64.992 51.324 106.44 51.359h5.7617c41.445-0.035156 80.621-18.938 106.44-51.359 25.926 32.555 65.309 51.473 106.92 51.359h5.7617c41.445-0.035156 80.621-18.938 106.44-51.359 25.816 32.422 64.996 51.324 106.44 51.359h5.7617-0.003906c36.168-0.03125 70.84-14.422 96.402-40.004 25.562-25.586 39.918-60.27 39.918-96.438v-127.92c-0.007812-15.426-6.1836-30.203-17.16-41.039zm-882.48-301.56h645.36v110.28h-645.36zm-35.156 470.52c-0.035156 20.266-8.0977 39.688-22.426 54.016s-33.754 22.395-54.016 22.426h-5.7617c-20.262-0.03125-39.688-8.0977-54.016-22.426s-22.391-33.75-22.422-54.016v-109.44h158.64zm218.64 0h-0.003906c-0.03125 20.285-8.1094 39.727-22.465 54.059s-33.809 22.383-54.094 22.383h-5.7617c-20.262-0.03125-39.688-8.0977-54.016-22.426s-22.391-33.75-22.422-54.016v-109.44h158.88zm218.64 0h-0.003906c-0.03125 20.266-8.0938 39.688-22.422 54.016s-33.754 22.395-54.016 22.426h-5.7617c-20.262-0.03125-39.688-8.0977-54.016-22.426s-22.395-33.75-22.426-54.016v-109.44h158.76zm218.64 0h-0.003906c-0.03125 20.266-8.0938 39.688-22.422 54.016-14.332 14.328-33.754 22.395-54.02 22.426h-5.3984c-20.262-0.03125-39.688-8.0977-54.016-22.426s-22.395-33.75-22.426-54.016v-109.44h158.52zm30-169.44-801.36 0.003906 132.96-130.92h681.12l132.96 130.92zm188.88 169.44c0 20.273-8.0508 39.719-22.387 54.051-14.336 14.336-33.777 22.391-54.051 22.391h-5.7617c-20.273 0-39.715-8.0547-54.051-22.391-14.336-14.332-22.391-33.777-22.391-54.051v-109.44h158.64zm-204.72 465.12c7.957 0 15.586-3.1602 21.215-8.7852 5.625-5.6289 8.7852-13.258 8.7852-21.215v-180c0-7.957-3.1602-15.586-8.7852-21.215-5.6289-5.625-13.258-8.7852-21.215-8.7852h-241.44c-7.957 0-15.586 3.1602-21.211 8.7852-5.625 5.6289-8.7891 13.258-8.7891 21.215v180c0 7.957 3.1641 15.586 8.7891 21.215 5.625 5.625 13.254 8.7852 21.211 8.7852zm-212.04-180h182.52v120h-181.92zm446.28 264h-77.043v-345.36c0-10.719-5.7188-20.621-15-25.98s-20.719-5.3594-30 0-15 15.262-15 25.98v345h-444v-293.64c0-7.957-3.1602-15.586-8.7852-21.215-5.625-5.625-13.258-8.7852-21.215-8.7852h-228.84c-8.0195-0.097656-15.742 3.0234-21.445 8.6602-5.7031 5.6367-8.9141 13.32-8.9141 21.34v293.64h-85.199v-345c0-10.719-5.7188-20.621-15-25.98s-20.719-5.3594-30 0-15 15.262-15 25.98v345h-77.52c-10.719 0-20.621 5.7188-25.98 15s-5.3594 20.719 0 30 15.262 15 25.98 15h1093.4c10.719 0 20.621-5.7188 25.98-15s5.3594-20.719 0-30-15.262-15-25.98-15zm-640.92 0h-169.32v-264h169.8z"/>
</svg>
