<?xml version="1.0" encoding="UTF-8"?>
<svg width="1200pt" height="1200pt" version="1.1" viewBox="0 0 1200 1200" xmlns="http://www.w3.org/2000/svg">
 <path d="m1066.7 240.14h-278.9v-65.578c0-35.625-28.969-64.641-64.641-64.641h-246.28c-35.625 0-64.641 28.969-64.641 64.641v65.578h-278.9c-52.828 0-95.812 42.984-95.812 95.812v327.89c0 9.4219 7.0312 17.391 16.406 18.609l27.328 3.4688v319.36c0 46.734 38.438 84.75 85.688 84.75h866.26c47.25 0 85.688-38.016 85.688-84.75v-319.36l27.328-3.4688c9.375-1.2188 16.406-9.1875 16.406-18.609v-327.89c0-52.828-42.984-95.812-95.812-95.812zm-616.97-65.578c0-14.953 12.188-27.141 27.141-27.141h246.28c14.953 0 27.141 12.188 27.141 27.141v65.578h-300.56zm631.6 830.76c0 26.062-21.609 47.25-48.188 47.25h-866.26c-26.578 0-48.188-21.188-48.188-47.25v-314.58l403.92 51.516v78.984c0 21.938 17.812 39.75 39.75 39.75h75.281c21.938 0 39.75-17.812 39.75-39.75v-78.984l403.92-51.516zm-521.21-184.08v-163.6c0-1.2188 1.0312-2.25 2.25-2.25h75.281c1.2188 0 2.25 0.98438 2.25 2.25v163.6c0 1.2188-1.0312 2.25-2.25 2.25h-75.281c-1.2188 0-2.25-1.0312-2.25-2.25zm564.89-173.9-447.61 57.094v-46.781c0-21.891-17.812-39.75-39.75-39.75h-75.281c-21.938 0-39.75 17.812-39.75 39.75v46.781l-447.61-57.094v-311.39c0-32.156 26.156-58.312 58.312-58.312h933.32c32.156 0 58.312 26.156 58.312 58.359v311.39z"/>
</svg>
