<?xml version="1.0" encoding="UTF-8"?>
<svg width="1200pt" height="1200pt" version="1.1" viewBox="0 0 1200 1200" xmlns="http://www.w3.org/2000/svg">
 <path d="m975.24 1110.4c-40.5-9.5156-73.594-29.109-104.62-61.969-31.031-32.906-55.266-70.734-92.344-144.28-22.125-43.828-24.281-47.203-30.234-46.875-16.547 0.9375-225.42-6.8438-244.97-9.1406-19.875-2.2969-22.406-2.1562-24.609 1.5938-1.3594 2.2969-11.719 17.25-23.016 33.234-43.031 60.891-105.7 122.39-166.36 163.18-96.703 65.062-171.79 66.656-233.76 5.0625-27.141-26.953-44.625-62.859-52.594-108.05-8.5312-48.094 2.9062-135.19 33.281-254.29 33.141-129.79 63.562-189 132.32-257.48 37.125-36.938 60.234-55.125 80.812-63.422 12.422-5.0156 17.719-5.25 162.84-6.7969 82.5-0.89062 150.14-1.7344 150.28-1.9219 0.14062-0.14063 0.9375-49.312 1.6875-109.12 1.4062-107.95 3.5625-138.32 10.688-153.52 7.5938-16.031 20.578-11.297 26.484 9.6562 7.0781 24.984 13.594 124.26 13.734 208.4 0.046875 22.312 0.84375 41.812 1.875 43.266 1.2656 1.875 42.984 3.2344 136.4 4.3594 214.6 2.6719 229.87 5.7188 279.28 55.641 39.234 39.656 72.984 98.438 98.156 170.9 10.688 30.844 61.781 235.31 66.047 264.37 5.5781 38.016 3.8906 91.828-3.6094 117.61-10.219 35.016-26.812 65.25-47.391 86.25-19.359 19.781-55.547 39.984-90.516 50.625-18.562 5.625-61.172 7.0781-79.922 2.6719zm75-64.547c36.375-12 59.203-30.797 74.719-61.594 14.812-29.438 17.531-42 17.344-80.578-0.1875-39.188-3-56.391-20.578-125.44-6.5156-25.688-17.672-70.5-24.797-99.609-20.531-84.047-39.844-133.87-69.516-179.16-19.641-30-49.594-61.172-67.312-70.078-7.0312-3.5156-23.062-8.9062-35.672-12l-22.922-5.5781-189.37 0.75c-104.16 0.42188-233.63-0.32812-287.72-1.6875-110.58-2.7188-142.31-1.0781-161.06 8.3906-20.391 10.266-67.5 53.344-89.156 81.516-38.484 50.016-56.344 90.609-79.031 179.48-27.281 107.02-41.344 201.52-36.141 242.39 7.9688 61.969 38.484 103.08 83.859 112.78 20.203 4.3125 40.594-0.42188 74.953-17.484 62.156-30.844 135.79-95.953 186.42-164.72 29.484-40.031 39.375-48.516 60.703-51.844 54.844-8.5312 52.172-8.5312 283.6-0.98438 44.578 1.4531 48.281 4.9219 86.578 80.438 49.406 97.406 83.438 140.44 128.11 161.86 27.75 13.312 53.344 14.203 87 3.1406zm-575.02-325.6c-8.5781-1.125-19.312-3.2344-23.906-4.7812-10.031-3.3281-20.812-15.375-20.812-23.344 0-8.1094 10.781-19.969 21.609-23.812 5.9531-2.1094 21.562-3.2344 44.812-3.2344 42.188 0 50.391 2.9062 56.344 20.016 3.1406 9 3.0469 10.828-1.2188 19.547-6.75 13.828-17.156 18.328-41.578 17.906-10.828-0.14063-26.672-1.2188-35.25-2.3438zm176.63-7.4531c-32.672-6.375-39.328-38.297-10.547-50.531 11.062-4.6875 78.891-4.6406 90.141 0.046874 24.047 10.031 25.031 39.797 1.5938 49.172-11.109 4.4531-61.031 5.25-81.188 1.2656zm-350.9-17.25c-4.3125-1.2188-10.406-5.8125-13.547-10.219-4.9688-6.9375-5.7656-11.438-6.5156-35.391l-0.84375-27.469-23.766-1.5469c-30.703-2.0156-33.047-2.5781-41.953-10.078-9.3281-7.8281-11.812-19.266-6.7969-31.266 5.7188-13.734 15.281-17.391 45.891-17.625l25.828-0.14063 1.5-25.828c0.79688-14.203 2.625-28.594 4.0312-31.969 6.7031-16.125 24.984-22.781 38.391-13.969 10.875 7.125 14.391 17.484 15.75 46.172l1.2656 26.25 11.062 1.5c6.0938 0.84375 16.5 1.5 23.156 1.5 29.438 0 46.922 10.969 46.922 29.438 0 10.266-4.4531 17.484-14.156 23.016-2.7188 1.5469-18.797 3.375-35.672 4.0781l-30.75 1.2656-1.3125 25.828c-0.98438 19.031-2.5312 27.891-5.9531 33.609-6.9844 11.859-19.172 16.641-32.531 12.844zm573.24-12.281c-9.8438-2.7656-20.156-13.125-22.734-22.828-2.8594-10.688 0.65625-21.188 9.75-29.438 7.125-6.4688 9-6.9375 22.547-5.9531 13.219 0.9375 15.609 2.0156 23.016 10.078 9.3281 10.172 10.875 21.516 4.5 33.75-6 11.625-23.25 18.328-37.125 14.438zm-81.375-66.047c-15.703-9.5625-20.297-31.547-9.8906-47.062 7.6406-11.344 15.375-14.953 29.672-13.734 16.594 1.4062 26.438 11.25 28.031 28.078 2.0156 21-11.766 37.5-31.359 37.5-4.7344 0-12.141-2.1562-16.5-4.7812zm135.74-0.9375c-17.109-7.875-23.25-26.438-13.781-41.766 18.609-30.141 68.016-15.516 63.422 18.797-2.0156 15.047-12.703 24.375-29.156 25.453-7.7344 0.51562-16.078-0.51563-20.438-2.5312zm-68.625-73.031c-16.406-14.391-16.875-34.5-1.125-47.766 5.7656-4.8281 10.125-6.2344 19.641-6.2344 21.703 0 34.125 11.25 34.125 30.844 0 18.188-13.359 30.609-32.859 30.609-9 0-12.891-1.5-19.781-7.5z"/>
</svg>
