<?xml version="1.0" encoding="UTF-8"?>
<svg width="1200pt" height="1200pt" version="1.1" viewBox="0 0 1200 1200" xmlns="http://www.w3.org/2000/svg">
 <path d="m317.58 103.08c68.531 0 123.61 56.344 123.61 124.97 0 68.672-55.078 124.97-123.61 124.97-68.531 0-123.61-56.344-123.61-124.97s55.078-124.97 123.61-124.97zm554.34 590.39 207.37 121.22v-364.97l-207.37 121.22zm0-148.36 229.69-134.26v442.69l-229.69-134.26v86.016c0 51.75-41.906 94.547-93.516 94.547h-276l155.76 223.13c3.1875 4.4531 2.6719 10.547-1.2188 14.391-2.9531 2.4375-5.7188 3.7969-9.7969 3.0938-2.7188-0.46875-5.8594-2.25-7.2656-4.6406l-149.72-214.5-125.21 219.56c-1.2188 2.1094-3.1875 3.8438-5.4375 4.7812-1.3125 0.5625-2.7656 0.84375-4.3125 0.84375v0.046876l-3.2344-0.51563 0.046875-0.14062c-6.3281-1.3594-10.219-9.1406-6.5156-16.031l131.16-230.02h-284.76c-51.609 0-93.516-42.797-93.516-94.547v-326.58c0-51.75 41.906-94.547 93.516-94.547h586.5c51.609 0 93.516 42.797 93.516 94.547zm-93.516-138.61h-586.5c-39.469 0-71.203 32.719-71.203 72.234v326.63c0 39.516 31.734 72.234 71.203 72.234h586.5c39.469 0 71.203-32.719 71.203-72.234l0.046875-326.63c-0.046875-39.516-31.781-72.234-71.25-72.234zm-149.58-353.06c81.797 0 147.52 67.266 147.52 149.21 0 81.984-65.719 149.21-147.52 149.21s-147.52-67.266-147.52-149.21c-0.046875-81.938 65.719-149.21 147.52-149.21zm88.5 59.391c-48.844-49.453-128.16-49.453-177 0-48.938 49.547-48.938 130.08 0 179.63 48.844 49.453 128.16 49.453 177 0 48.938-49.547 48.938-130.08 0-179.63zm-328.18 42.562c-39.516-39.984-103.64-39.984-143.16 0-39.609 40.078-39.609 105.28 0 145.4 39.516 39.984 103.69 39.984 143.16 0 39.609-40.125 39.609-105.33 0-145.4z" fill-rule="evenodd"/>
</svg>
